<svg xmlns="http://www.w3.org/2000/svg" width="370" height="80" viewBox="0 0 370 80">
  <defs>
    <style>
      .cls-1 {
        fill-rule: evenodd;
      }
    </style>
  </defs>
  <path id="Logo" class="cls-1" d="M2150.06,1603.3l0.01-19.96-36.45,9.36v19.95Zm20.53,28.1v-17.75l-18.5-7.81h-1.48l-4.53,1.16v24.4h24.51Zm-27.12-8.12-27.08-8.66,27.08-6.95v15.61Zm29.73-3.14,6.43-2.66-6.43-2.72v5.38Zm9.53-1.19-9.53,3.85v11.19h-29.73v-7.98l-30.76-9.84a2.915,2.915,0,0,1-1.7-2.85v-22.63l32.46-8.33v-11.35h29.73v18.32l10.42,4.41v22.63C2183.62,1616.46,2183.68,1618.56,2182.73,1618.95Zm-22.57-12.49,0.01-19.84-7.49-3.17-0.01,19.9,0.01-.05Zm2.62-18.74-0.01,19.84,18.24,7.71v-19.85Zm-12.71-7.06a4.28,4.28,0,0,1,2.61,0l17.91,7.57V1573.6h-24.51v8.09Zm193.92,41.87,1.9,4.79h-3.8Zm-0.55-1.3-3.52,8.77h1.1l0.67-1.67h4.6l0.66,1.67h1.1l-3.51-8.77h-1.1Zm-8.04,8.77-2.32-3.99a2.355,2.355,0,0,0,1.84-2.33,2.423,2.423,0,0,0-2.48-2.45h-3.92V1630h1.09v-3.89h2.28l2.27,3.89h1.24Zm-5.79-7.75h2.71a1.433,1.433,0,1,1,0,2.86h-2.71v-2.86Zm-15.02,3.37a4.466,4.466,0,1,0,4.47-4.39A4.4,4.4,0,0,0,2314.59,1625.62Zm1.14,0a3.325,3.325,0,1,1,3.33,3.37A3.309,3.309,0,0,1,2315.73,1625.62Zm-13.29-4.39v1.02h3.26V1630h1.1v-7.75h3.26v-1.02h-7.62Zm-5.49,5.37a3.35,3.35,0,1,1-3.21-4.37,3.36,3.36,0,0,1,3.21,2.39l1.05-.32a4.391,4.391,0,1,0,0,2.62Zm-13.66-5.37v5.19a2.349,2.349,0,1,1-4.68,0v-5.19h-1.1v5.24a3.436,3.436,0,1,0,6.87,0v-5.24h-1.09Zm-9.94,8.77-2.33-3.99a2.344,2.344,0,0,0,1.84-2.33,2.423,2.423,0,0,0-2.48-2.45h-3.92V1630h1.1v-3.89h2.27l2.28,3.89h1.24Zm-5.79-7.75h2.7a1.433,1.433,0,1,1,0,2.86h-2.7v-2.86Zm-13.52-1.02v1.02h3.26V1630h1.09v-7.75h3.26v-1.02h-7.61Zm-11.6,7.23a5.827,5.827,0,0,0,3.75,1.54c1.91,0,3.37-1.09,3.37-2.58,0-3.31-5.89-1.55-5.89-3.75,0-.99.89-1.45,2.03-1.45a4.634,4.634,0,0,1,2.6.83l0.63-.78a5.649,5.649,0,0,0-3.24-1.05c-1.72.01-3.12,0.83-3.12,2.52,0,3.17,5.91,1.51,5.91,3.68,0,0.9-.99,1.57-2.31,1.56a4.539,4.539,0,0,1-3.05-1.28Zm-6.07-7.23v6.84l-5.58-6.84h-0.64V1630h1.09v-6.84l5.59,6.84h0.65v-8.77h-1.11Zm-20.15,4.39a4.466,4.466,0,1,0,4.47-4.39A4.4,4.4,0,0,0,2216.22,1625.62Zm1.14,0a3.325,3.325,0,1,1,3.33,3.37A3.309,3.309,0,0,1,2217.36,1625.62Zm-6.84.98a3.35,3.35,0,1,1-3.21-4.37,3.351,3.351,0,0,1,3.21,2.39l1.05-.32a4.391,4.391,0,1,0,0,2.62Zm237.99-49.48h0.81a4.614,4.614,0,0,0,.98-0.06,0.582,0.582,0,0,0,.3-0.23,0.686,0.686,0,0,0,.12-0.41,0.635,0.635,0,0,0-.15-0.44,0.675,0.675,0,0,0-.41-0.21c-0.09-.01-0.36-0.02-0.8-0.02h-0.85v1.37Zm-1.1,3.11v-5.39h2.31a3.745,3.745,0,0,1,1.25.15,1.207,1.207,0,0,1,.64.52,1.639,1.639,0,0,1-.12,1.85,1.705,1.705,0,0,1-1.07.49,2.5,2.5,0,0,1,.58.46,5.985,5.985,0,0,1,.62.87l0.66,1.05h-1.31l-0.78-1.17a5.667,5.667,0,0,0-.58-0.79,0.8,0.8,0,0,0-.32-0.23,1.975,1.975,0,0,0-.56-0.06h-0.22v2.25h-1.1Zm2.07-7.05a4.36,4.36,0,1,1-4.39,4.36,4.377,4.377,0,0,1,4.39-4.36m0-1.14a5.5,5.5,0,1,1-5.53,5.5A5.508,5.508,0,0,1,2449.48,1572.04Zm-27.77,11.34v30.02h20.55v-4.62h-15.52v-25.4h-5.03Zm-18.3,5.91,5.63,14.45h-11.28Zm-2.5-5.87-12,29.98h5.01l2.03-5.13h14.9l2.05,5.13h4.98l-11.97-29.98h-5Zm-33.54-.04v4.66h10.55v25.36h5.02v-25.36h10.55v-4.66h-26.12Zm-8.81.04v21.15l-18.62-21.15h-2.66v29.98h5.02v-21.15l18.64,21.15h2.66v-29.98h-5.04Zm-45.59,0v29.98h20.56v-4.62H2318v-9.49h11.72v-4.62H2318v-6.63h15.53v-4.62h-20.56Zm-8.16,0-13.02,15.63-13.03-15.63h-2.67v29.98h5.02v-21l10.68,12.93,10.67-12.91v20.98h5.02v-29.98h-2.67Zm-52.98,0v29.98h20.55v-4.62h-15.52v-9.49h11.72v-4.62h-11.72v-6.63h15.52v-4.62h-20.55Zm-24.18-.04v30.02h20.56v-4.62h-15.52v-25.4h-5.04Zm-24.34.04v0.01h-2.46l-0.1,5.24a2.543,2.543,0,0,1,2.54,2.39l0.02,0.01v2.38h-2.46l-0.1,5.24a2.543,2.543,0,0,1,2.54,2.39l0.02,0.01v12.31h20.56v-4.62h-15.53v-9.49h11.72v-4.62h-11.72v-6.63h15.53v-4.62h-20.56Z" transform="translate(-2098 -1562.5)"/>
</svg>
