<svg id="Capa_1" data-name="Capa 1" xmlns="http://www.w3.org/2000/svg" viewBox="0 0 240.37 240.37"><path d="M180.65,121.13c-.82,2.18-2.43,2.87-4.7,2.87q-35-.07-70,0a1.49,1.49,0,0,0-1.73,1.19A14.93,14.93,0,0,1,89.87,135.3,15.21,15.21,0,0,1,75.62,125l-.34-1H74c-3.47,0-6.93,0-10.39,0a3.78,3.78,0,1,1,0-7.55H75.23c.37-.92.66-1.81,1.06-2.66a15.09,15.09,0,0,1,27.95,1.58,1.35,1.35,0,0,0,1.56,1.1c23.39,0,46.77,0,70.15-.05,2.27,0,3.88.68,4.7,2.86Zm-83.14-1a7.56,7.56,0,1,0-7.55,7.6A7.55,7.55,0,0,0,97.51,120.13Z"/><path d="M180.65,166.48c-.82,2.18-2.43,2.88-4.7,2.87-10.78-.07-21.57,0-32.35,0a1.32,1.32,0,0,0-1.54,1.11,15.11,15.11,0,0,1-28.64-.07c-.11-.33-.23-.66-.36-1H63.91c-3,0-4.78-2.22-4-5a3.51,3.51,0,0,1,3.17-2.58c.43,0,.87,0,1.3,0q23.67,0,47.34,0c.94,0,1.41-.17,1.76-1.18a15.08,15.08,0,0,1,28.58.18,1.2,1.2,0,0,0,1.38,1c10.82,0,21.65,0,32.47-.05,2.27,0,3.88.68,4.7,2.86Zm-45.34-1a7.56,7.56,0,1,0-7.55,7.58A7.55,7.55,0,0,0,135.31,165.51Z"/><path d="M180.65,75.78c-.83,2.18-2.44,2.88-4.71,2.86-10.78-.06-21.56,0-32.34,0a1.34,1.34,0,0,0-1.54,1.12,15.12,15.12,0,0,1-28.64-.06c-.12-.33-.23-.66-.37-1h-1.44q-23.77,0-47.57,0c-2.38,0-3.68-.9-4.15-2.86a3.65,3.65,0,0,1,3.56-4.69c3.27,0,6.53,0,9.8,0H113c.49-1.15.87-2.27,1.43-3.3A14.91,14.91,0,0,1,125.09,60a6.65,6.65,0,0,0,.76-.23h3.78a2.26,2.26,0,0,0,.42.19c6.13,1.1,10.15,4.65,12.17,10.51a5.78,5.78,0,0,0,.28.63H144c10.66,0,21.32,0,32,0,2.28,0,3.88.68,4.69,2.87Zm-45.34-.89a7.56,7.56,0,1,0-7.64,7.5A7.54,7.54,0,0,0,135.31,74.89Z"/></svg>