<svg id="Capa_1" data-name="Capa 1" xmlns="http://www.w3.org/2000/svg" viewBox="0 0 240.37 240.37"><path d="M220.26,120.05c-.37,37.16-27.93,69-64.65,74.08-20,2.77-38.21-1.83-54.6-13.61a6.9,6.9,0,0,1-2.2-2.4,3.07,3.07,0,0,1,1.09-4c1.48-1.13,3-.88,4.54.06,4.42,2.67,8.71,5.67,13.4,7.79,39.61,17.92,86.47-7.16,93.73-50,6.27-37.06-17.48-71.4-54.51-78.26C138.58,50.3,121.47,54.28,106,65c-.55.38-1.07.81-1.62,1.17-1.9,1.24-4,1-5.14-.62a3.37,3.37,0,0,1,1-5c5.09-3.14,10.06-6.63,15.52-9,42.19-18.18,90.7,5.94,101.75,50.55C218.91,108,219.35,114.06,220.26,120.05Z"/><path d="M148.62,116.65h16.76c1.33,0,2.67-.05,4,0a3.46,3.46,0,0,1,3.56,3.48,3.37,3.37,0,0,1-3.45,3.58q-12.23.1-24.45,0a3.32,3.32,0,0,1-3.48-3.33,17.45,17.45,0,0,1-.06-1.77q0-17,0-34a10.81,10.81,0,0,1,.14-2.21,3.48,3.48,0,0,1,6.74-.22,10.55,10.55,0,0,1,.22,2.64q0,14.45,0,28.9Z"/><path d="M50.69,116.65h26c2.93,0,4.61,1.36,4.55,3.65s-1.66,3.46-4.51,3.46H24.54c-2.8,0-4.41-1.31-4.43-3.53s1.6-3.57,4.38-3.57Q37.59,116.63,50.69,116.65Z"/><path d="M73.88,103.36h-24c-.59,0-1.18,0-1.77,0a3.53,3.53,0,0,1-.26-7,19.65,19.65,0,0,1,2.66-.06q23.86,0,47.73,0a9.59,9.59,0,0,1,2.63.22,3.23,3.23,0,0,1,2.54,3.66,3.29,3.29,0,0,1-3.14,3.18,16.48,16.48,0,0,1-2,0Z"/><path d="M82.71,137.05h22c2.83,0,4.46,1.29,4.49,3.47s-1.68,3.63-4.4,3.63q-22.08,0-44.17,0c-2.81,0-4.36-1.36-4.33-3.64s1.55-3.46,4.46-3.46Z"/><path d="M75.23,157.42c5.85,0,11.7,0,17.54,0,2.86,0,4.44,1.3,4.45,3.51s-1.64,3.58-4.42,3.59q-17.65,0-35.31,0a8.81,8.81,0,0,1-.89,0c-2.29-.25-3.62-1.68-3.52-3.76s1.45-3.28,3.71-3.3c6.15,0,12.29,0,18.44,0Z"/><path d="M80.69,83c-3.1,0-6.21,0-9.31,0-2.54,0-4-1.34-4-3.47s1.4-3.57,3.9-3.6c6.21-.07,12.42-.06,18.63,0,2.46,0,4,1.47,4,3.51S92.42,83,89.79,83C86.76,83,83.73,83,80.69,83Z"/><path d="M148.57,64.81a36.45,36.45,0,0,1,0,3.77c-.16,1.59-1.56,2.56-3.45,2.57s-3.45-1-3.52-2.67c-.11-2.51-.11-5,0-7.54.08-1.57,1.54-2.56,3.42-2.58s3.35,1,3.52,2.51a34.53,34.53,0,0,1,0,3.94Z"/><path d="M174.55,75.16c-.65,1.07-1.21,2.21-2,3.21-1,1.28-2.66,1.39-4.29.43s-2.45-2.64-1.64-4.11c1.2-2.21,2.5-4.37,3.9-6.45.87-1.31,2.64-1.41,4.26-.45s2.38,2.53,1.72,4a38.61,38.61,0,0,1-2,3.39Z"/><path d="M190.87,96.32a36.47,36.47,0,0,1-3.13,2.11c-1.4.76-3,.16-4.07-1.39s-1.14-3.42.21-4.42c2-1.51,4.09-2.94,6.22-4.26,1.34-.83,3-.18,4.07,1.37s1.11,3.29-.08,4.32a35.85,35.85,0,0,1-3.23,2.25Z"/><path d="M187.05,151.33a36.46,36.46,0,0,1-3.22-2c-1.27-1-1.38-2.65-.42-4.28s2.63-2.45,4.11-1.65c2.2,1.21,4.36,2.51,6.45,3.9,1.31.88,1.4,2.64.44,4.27s-2.53,2.38-4,1.72a34,34,0,0,1-3.39-2Z"/><path d="M166.57,169a36.31,36.31,0,0,1-2.11-3.12c-.76-1.4-.16-3,1.39-4.07s3.41-1.14,4.42.21q2.26,3,4.26,6.22c.82,1.34.18,3-1.37,4.06s-3.29,1.12-4.32-.08a33.22,33.22,0,0,1-2.25-3.23Z"/><path d="M200.48,123.71a36.45,36.45,0,0,1-3.77,0c-1.59-.16-2.56-1.56-2.57-3.45s1-3.46,2.67-3.53c2.51-.1,5-.1,7.54,0,1.57.08,2.56,1.54,2.58,3.42s-1,3.35-2.51,3.52a34.53,34.53,0,0,1-3.94,0Z"/><path d="M141.53,175.6a36.28,36.28,0,0,1,0-3.76c.17-1.59,1.57-2.56,3.45-2.58s3.46,1,3.53,2.68c.11,2.51.11,5,0,7.54-.08,1.57-1.54,2.56-3.43,2.57s-3.35-.94-3.52-2.51a37,37,0,0,1,0-3.94Z"/><path d="M57.63,82.92a32,32,0,0,1-3.53,0,3.2,3.2,0,0,1-3-3.29,3,3,0,0,1,2.7-3.49,41.81,41.81,0,0,1,7.91,0c1.83.18,2.74,1.65,2.64,3.51a3.16,3.16,0,0,1-3,3.26A33.5,33.5,0,0,1,57.63,82.92Z"/><path d="M90.78,116.67c1,0,2.07-.07,3.1,0a3.5,3.5,0,0,1,3.34,3.46A3.45,3.45,0,0,1,94,123.71a52.73,52.73,0,0,1-6.41,0,3.43,3.43,0,0,1-3.23-3.56,3.5,3.5,0,0,1,3.34-3.46C88.71,116.6,89.75,116.67,90.78,116.67Z"/><path d="M43.9,157.46c1,0,2.07-.08,3.1,0a3.2,3.2,0,0,1,3.19,3.3,3.09,3.09,0,0,1-2.87,3.57,31.73,31.73,0,0,1-6.82,0,3.1,3.1,0,0,1-2.79-3.64,3.21,3.21,0,0,1,3.1-3.18c1-.1,2.06,0,3.09,0Z"/></svg>