<svg id="Capa_1" data-name="Capa 1" xmlns="http://www.w3.org/2000/svg" viewBox="0 0 240.37 240.37"><path d="M36.36,138.18c.53-3.1.93-6.24,1.61-9.31,5-22.76,24.72-41.24,47.73-44.68,4.83-.72,9.75-.76,14.72-1.12a67.89,67.89,0,0,1,1.17-7.85A96.08,96.08,0,0,1,105,65a3.2,3.2,0,0,1,4.5-2c1.73.81,2.31,2.71,1.39,4.75-5.75,12.84-5,25.29,2.06,37.44a7.48,7.48,0,0,1,.9,3.08A29.42,29.42,0,0,1,111.39,123c-.17.39-.31.8-.52,1.35,5,.87,10,.79,14.49-1.19,4.07-1.77,7.64-1.57,11.86-.48,22.52,5.79,45.17-9.84,48.18-32.93a39.29,39.29,0,0,0-40-44.5,40,40,0,0,0-14.9,3.38c-1.92.82-3.54.39-4.47-1.07-1.17-1.82-.4-3.93,1.82-4.91a45.87,45.87,0,1,1,27,87c-.41.08-.82.2-1.31.32.38,2.62.73,5.15,1.12,7.87h1.89q19.56,0,39.13,0c5.3,0,8.36,3,8.37,8.28q0,10.56,0,21.11c0,5-3.09,8.13-8,8.14q-23.49,0-47,0a2.81,2.81,0,0,1-1-.05c-2.31-.95-3.42.24-4.75,2-10.25,13.79-24,21.89-41,23.91a59.13,59.13,0,0,1-64.57-46.56c-.56-2.65-.88-5.36-1.3-8Zm70.69-21.86c.11-2.67.22-5.09.27-7.52a2.21,2.21,0,0,0-.44-1,44,44,0,0,1-5.74-16.39c-.12-.87-.38-1.4-1.41-1.35-4.4.24-8.9-.1-13.18.71C66.59,94.51,52.66,106,46,125.15c-6.73,19.31-2.79,37.06,10.52,52.64.72.85,1.55,1.61,2.53,2.62a38,38,0,0,1,17.08-25c-8.64-10.93-7-23.83-.55-32.08S94.19,110.53,107.05,116.32ZM95.49,195.15a52.63,52.63,0,0,0,29.33-8.9c.69-.46,1.25-.83,1.12-1.91A30.68,30.68,0,0,0,111,160.77a2.07,2.07,0,0,0-2.48,0c-8.69,4.94-17.42,4.91-26.1,0a1.85,1.85,0,0,0-2.19,0,30.65,30.65,0,0,0-15,23,2.52,2.52,0,0,0,1.3,2.8A53.16,53.16,0,0,0,95.49,195.15Zm43.81-38.54a38.39,38.39,0,0,0,4.13,2.72c3.14,1.52,4.48,3.81,4,7.34-.25,2,.14,2.18,2.07,2.18q22.92,0,45.84,0c2,0,2.09-.16,2.09-2.19q0-10,0-20c0-2.26,0-2.28-2.3-2.28H151.45c-4.42,0-4.1-.59-4,4a4.57,4.57,0,0,1-2.43,4.43C143.12,154,141.3,155.28,139.3,156.61Zm-34.91-34.15c-.53-.28-.9-.5-1.29-.67a18.82,18.82,0,1,0,4.73,31.48,19,19,0,0,0,5.44-20.7,2.2,2.2,0,0,0-2.14-1.58,51.84,51.84,0,0,1-5.95-1.07,3.24,3.24,0,0,1-2.19-4.85C103.39,124.23,103.86,123.44,104.39,122.46Zm10.52,33c9.21,5.94,14.83,14.22,17.42,24.89,2.95-3.5,5.68-7,8.22-10.66,1.1-1.58.32-4.16-1.25-5.2-2.41-1.59-4.82-3.17-7.22-4.78-2.69-1.8-2.69-4.36,0-6.15,2.44-1.63,4.87-3.32,7.38-4.85a2.78,2.78,0,0,0,1.45-2.77,7.54,7.54,0,0,1,4.87-7.58c.7-.26,1.44-.42,2.27-.67-.32-2-.69-3.82-.92-5.71-.14-1.2-.61-1.56-1.86-1.64a39.22,39.22,0,0,1-8.89-1.13,13.28,13.28,0,0,0-9.55.41,45.16,45.16,0,0,1-7,1.73A25.68,25.68,0,0,1,114.91,155.45Z"/><path d="M139.34,72c.46-.94.86-1.63,1.15-2.37,1.1-2.78,2.12-5.61,3.26-8.37,1.05-2.55,2.6-4.71,5.39-5.57a8.15,8.15,0,0,1,10.33,7.55c.08,2.39,0,4.78,0,7.43,1.14,0,2.15,0,3.17,0,5.67.15,10.28,4,10.75,9.67a60.31,60.31,0,0,1-.2,12.24,14.55,14.55,0,0,1-14,12.54c-5.5.12-11-.19-16.51-.31a2.68,2.68,0,0,1-.8-.13c-2-.71-3.79-1.2-5.57.66-.6.62-1.93.7-2.93.73-2.78.1-5.56,0-8.35,0-4.27,0-6.65-2.4-6.66-6.72,0-6.6,0-13.21,0-19.81,0-1.69,0-3.38,0-5.07.07-4,2.51-6.4,6.48-6.42h7.36C135.92,68.1,137,68.66,139.34,72Zm.16,15.91v5.72c0,3.8,0,4.22,3.77,4.54a120.63,120.63,0,0,0,16.79.24c3.87-.23,6.8-4.14,6.92-8.16.07-2.84.06-5.67,0-8.51a4.36,4.36,0,0,0-4.56-4.52c-1.9,0-3.81,0-5.72,0-2.47,0-3.73-1.3-3.75-3.75,0-2.89,0-5.78,0-8.67,0-1.16.15-2.61-1.34-2.69-.61,0-1.54,1.16-1.9,2-1.22,2.79-2.21,5.68-3.34,8.51s-2.77,5-5.71,5.89c-1,.32-1.18.85-1.17,1.75C139.53,82.79,139.5,85.36,139.5,87.92ZM125,74.7V99.45h7.86V74.7Z"/><path d="M119.94,54a3.21,3.21,0,0,1-3.23,3.34,3.27,3.27,0,1,1,0-6.53A3.22,3.22,0,0,1,119.94,54Z"/><path d="M157.84,159.87a3.17,3.17,0,0,1-3.3-3.12,3.3,3.3,0,0,1,3.21-3.44,3.37,3.37,0,0,1,3.34,3.34A3.26,3.26,0,0,1,157.84,159.87Z"/><path d="M172.57,159.87a3.17,3.17,0,0,1-3.3-3.13,3.3,3.3,0,0,1,3.21-3.43,3.39,3.39,0,0,1,3.34,3.34A3.25,3.25,0,0,1,172.57,159.87Z"/><path d="M187.26,159.87A3.18,3.18,0,0,1,184,156.7a3.32,3.32,0,0,1,3.27-3.38,3.36,3.36,0,0,1,3.29,3.22A3.25,3.25,0,0,1,187.26,159.87Z"/></svg>